<?xml version="1.0" encoding="UTF-8" standalone="no"?>
<svg
   width="64"
   height="64"
   version="1.1"
   viewBox="0 0 64 64"
   id="svg3"
   sodipodi:docname="visible.svg"
   inkscape:version="1.3.2 (091e20ef0f, 2023-11-25, custom)"
   xmlns:inkscape="http://www.inkscape.org/namespaces/inkscape"
   xmlns:sodipodi="http://sodipodi.sourceforge.net/DTD/sodipodi-0.dtd"
   xmlns="http://www.w3.org/2000/svg"
   xmlns:svg="http://www.w3.org/2000/svg">
  <defs
     id="defs3" />
  <sodipodi:namedview
     id="namedview3"
     pagecolor="#505050"
     bordercolor="#ffffff"
     borderopacity="1"
     inkscape:showpageshadow="0"
     inkscape:pageopacity="0"
     inkscape:pagecheckerboard="1"
     inkscape:deskcolor="#d1d1d1"
     inkscape:zoom="11.070641"
     inkscape:cx="33.376569"
     inkscape:cy="32.247456"
     inkscape:window-width="1920"
     inkscape:window-height="1022"
     inkscape:window-x="0"
     inkscape:window-y="373"
     inkscape:window-maximized="1"
     inkscape:current-layer="svg3" />
  <path
     id="path5"
     style="opacity:1;fill:#ffffff;fill-opacity:1;stroke:none;stroke-width:0.324337;stroke-linecap:round;stroke-linejoin:round;stroke-opacity:0.457196;paint-order:stroke fill markers"
     d="M 32 14.832031 C 16.954513 14.832036 4.7584796 27.068233 4.7597656 32 C 4.7584796 36.931767 16.954513 48.843745 32 48.84375 C 47.045487 48.843745 59.24152 36.931767 59.240234 32 C 59.24152 27.068233 47.045487 14.832036 32 14.832031 z M 32 20.949219 A 11.050186 11.050186 0 0 1 43.050781 32 A 11.050186 11.050186 0 0 1 32 43.050781 A 11.050186 11.050186 0 0 1 20.949219 32 A 11.050186 11.050186 0 0 1 32 20.949219 z " />
  <circle
     style="opacity:1;fill:#292929;fill-opacity:1;stroke:none;stroke-width:0.416548;stroke-linecap:round;stroke-linejoin:round;stroke-opacity:0.457196;paint-order:stroke fill markers"
     id="circle6"
     cx="32"
     cy="32"
     r="8.1235294" />
</svg>
