<?xml version="1.0" encoding="UTF-8" standalone="no"?>
<!-- Created with Inkscape (http://www.inkscape.org/) -->

<svg
   width="150mm"
   height="150mm"
   viewBox="0 0 150 150"
   version="1.1"
   id="svg1"
   xml:space="preserve"
   inkscape:version="1.3.2 (091e20ef0f, 2023-11-25, custom)"
   sodipodi:docname="favicon.svg"
   inkscape:export-filename="icon.png"
   inkscape:export-xdpi="43.349998"
   inkscape:export-ydpi="43.349998"
   xmlns:inkscape="http://www.inkscape.org/namespaces/inkscape"
   xmlns:sodipodi="http://sodipodi.sourceforge.net/DTD/sodipodi-0.dtd"
   xmlns="http://www.w3.org/2000/svg"
   xmlns:svg="http://www.w3.org/2000/svg"><sodipodi:namedview
     id="namedview1"
     pagecolor="#505050"
     bordercolor="#ffffff"
     borderopacity="1"
     inkscape:showpageshadow="0"
     inkscape:pageopacity="0"
     inkscape:pagecheckerboard="1"
     inkscape:deskcolor="#d1d1d1"
     inkscape:document-units="mm"
     inkscape:zoom="0.72871773"
     inkscape:cx="141.34417"
     inkscape:cy="365.02474"
     inkscape:window-width="1920"
     inkscape:window-height="1022"
     inkscape:window-x="0"
     inkscape:window-y="0"
     inkscape:window-maximized="1"
     inkscape:current-layer="layer1"
     showguides="true" /><defs
     id="defs1" /><g
     inkscape:label="Layer 1"
     inkscape:groupmode="layer"
     id="layer1"
     transform="translate(-38.006835,-45.359996)"><path
       style="fill:#aa3f3f;fill-opacity:1;stroke:#000000;stroke-width:0.987098;stroke-opacity:0.457196"
       d="m 133.84974,141.50454 0.26117,0.26117 -0.26117,-0.26117"
       id="path7" /><path
       style="fill:#aa3f3f;fill-opacity:1;stroke:#000000;stroke-width:0.987098;stroke-opacity:0.457196"
       d="m 128.88751,119.30513 0.26118,0.26116 -0.26118,-0.26116"
       id="path6" /><path
       style="fill:#aa3f3f;fill-opacity:1;stroke:#000000;stroke-width:0.987098;stroke-opacity:0.457196"
       d="m 117.39605,98.672725 -0.26117,0.261169 0.26117,-0.261169"
       id="path3" /><g
       id="g9"
       style="fill:#ff2525;fill-opacity:1;stroke:#ffffff;stroke-opacity:1;stroke-linecap:round;stroke-linejoin:round"
       transform="matrix(2.6414117,0,0,2.6414117,-185.35691,-141.56795)"><path
         style="fill:#ff2525;fill-opacity:1;stroke:#ffffff;stroke-width:0.987098;stroke-opacity:1;stroke-linecap:round;stroke-linejoin:round"
         d="m 99.897688,114.86524 v 2.08936 c 6.266512,1.51213 6.006882,3.059 6.006902,8.30419 l 14.10316,0.0342 c 0,-5.23653 -0.65965,-7.19876 6.0069,-8.33843 V 114.8652 H 99.897688"
         id="path5"
         sodipodi:nodetypes="ccccccc" /><path
         style="fill:#ff2525;fill-opacity:1;stroke:#ffffff;stroke-width:0.987098;stroke-opacity:1;stroke-linecap:round;stroke-linejoin:round"
         d="m 112.17266,72.816935 c -1.83872,8.177395 -6.16215,16.544929 -4.17872,25.072281 -2.29949,-2.916495 -2.45114,-5.593324 -1.82818,-9.140935 -1.91596,1.441358 -3.22659,3.273068 -4.15011,5.48456 -0.76287,1.826801 -1.10259,3.768405 -1.03196,5.745727 0.51038,14.285922 21.86933,14.664642 23.78945,0.783512 0.25449,-1.83979 0.0877,-3.719688 -0.49546,-5.48456 -0.88574,-2.681005 -2.68053,-4.725649 -4.79227,-6.529239 1.02697,3.855933 0.48802,6.824059 -2.08936,9.924444 0.77121,-6.178389 -0.93344,-11.573301 -2.44596,-17.498363 -0.69998,-2.742057 -1.14576,-5.994674 -2.77743,-8.357427"
         id="path2" /></g></g></svg>
