<?xml version="1.0" encoding="UTF-8" standalone="no"?>
<!-- Created with Inkscape (http://www.inkscape.org/) -->

<svg
   width="150mm"
   height="150mm"
   viewBox="0 0 150 150"
   version="1.1"
   id="svg1"
   xml:space="preserve"
   inkscape:version="1.3.2 (091e20ef0f, 2023-11-25, custom)"
   sodipodi:docname="icon.svg"
   inkscape:export-filename="icon.png"
   inkscape:export-xdpi="43.349998"
   inkscape:export-ydpi="43.349998"
   xmlns:inkscape="http://www.inkscape.org/namespaces/inkscape"
   xmlns:sodipodi="http://sodipodi.sourceforge.net/DTD/sodipodi-0.dtd"
   xmlns="http://www.w3.org/2000/svg"
   xmlns:svg="http://www.w3.org/2000/svg"><sodipodi:namedview
     id="namedview1"
     pagecolor="#505050"
     bordercolor="#ffffff"
     borderopacity="1"
     inkscape:showpageshadow="0"
     inkscape:pageopacity="0"
     inkscape:pagecheckerboard="1"
     inkscape:deskcolor="#d1d1d1"
     inkscape:document-units="mm"
     inkscape:zoom="0.72871773"
     inkscape:cx="163.98668"
     inkscape:cy="377.3752"
     inkscape:window-width="1920"
     inkscape:window-height="1022"
     inkscape:window-x="0"
     inkscape:window-y="373"
     inkscape:window-maximized="1"
     inkscape:current-layer="layer1"
     showguides="true" /><defs
     id="defs1" /><g
     inkscape:label="Layer 1"
     inkscape:groupmode="layer"
     id="layer1"
     transform="translate(-38.006835,-45.359996)"><path
       style="fill:#aa3f3f;fill-opacity:1;stroke:#000000;stroke-width:0.987098;stroke-opacity:0.457196"
       d="M 108.77745,46.041218 C 97.468678,46.946179 86.826233,50.022302 76.914764,55.595285 69.869012,59.556936 63.625729,64.709377 58.23556,70.727579 30.053569,102.19317 34.261438,152.90783 67.512659,179.08584 c 28.619052,22.53123 73.465141,21.88849 100.869311,-9.37497 28.95318,-33.0306 22.31433,-86.167778 -14.161,-110.901353 -6.16066,-4.177486 -12.95896,-7.653844 -20.11006,-9.784534 -8.18893,-2.439921 -16.78624,-3.667725 -25.33346,-2.983765 m 0.26118,7.449169 c 3.09757,2.288835 5.79745,4.87796 7.5661,8.357426 1.98566,3.906353 2.60087,8.335477 4.56069,12.274971 2.54289,5.111536 6.37843,9.446483 8.80697,14.625497 4.70709,10.038068 3.6128,20.685019 -0.8237,30.556849 9.29419,-7.18815 12.80923,-18.89887 8.35742,-29.773341 1.62566,1.385598 3.0595,2.887005 4.20421,4.701132 6.67941,10.585469 1.02601,21.679209 -2.64146,32.123789 -1.76297,5.0208 -2.92888,10.21672 -4.95795,15.14783 8.44848,-7.43957 14.13774,-18.13433 14.6255,-29.51216 h 0.26117 c 7.30672,15.80683 9.48167,33.63936 -1.25834,48.57755 -4.66679,6.64128 -11.24577,11.39426 -18.85173,14.10315 17.6529,3.33279 25.29061,5.77223 2.35053,5.74547 H 88.667395 c -3.381304,0 -6.801694,0.14924 -10.178671,-0.025 -0.99209,-0.0512 -3.072082,-0.40976 -2.546921,-1.90792 0.588196,-1.67797 3.811459,-1.20064 5.151674,-1.20105 5.561586,-0.002 10.350248,-0.7455 15.670175,-2.3506 v -0.26116 c -4.354688,-1.23911 -8.298223,-3.5702 -11.752224,-6.47967 C 68.255886,154.07917 66.89749,130.60747 76.653595,111.99238 h 0.261169 c 0.642595,11.17144 5.868561,22.6879 14.886666,29.51216 -2.374675,-4.68962 -3.279404,-9.9436 -4.978632,-14.88667 -3.614331,-10.5141 -9.419258,-21.41289 -2.868442,-32.123779 1.083796,-1.772061 2.383379,-3.319678 3.92953,-4.701132 -0.816879,3.116676 -1.752684,6.141964 -1.776722,9.402104 -0.05926,8.036337 4.420188,15.583787 10.656488,20.371227 -5.269873,-11.70869 -5.562374,-23.377721 0.251208,-34.996723 3.84649,-7.687574 11.47079,-13.900602 12.83748,-22.721754 0.46081,-2.974263 -0.27195,-5.477659 -0.81371,-8.357426 m 3.13403,19.326548 c -1.83872,8.177395 -6.16215,16.544929 -4.17872,25.072281 -2.29949,-2.916495 -2.45114,-5.593324 -1.82818,-9.140935 -1.91596,1.441358 -3.22659,3.273068 -4.15011,5.48456 -0.76287,1.826801 -1.10259,3.768405 -1.03196,5.745727 0.51038,14.285922 21.86933,14.664642 23.78945,0.783512 0.25449,-1.83979 0.0877,-3.719688 -0.49546,-5.48456 -0.88574,-2.681005 -2.68053,-4.725649 -4.79227,-6.529239 1.02697,3.855933 0.48802,6.824059 -2.08936,9.924444 0.77121,-6.178389 -0.93344,-11.573301 -2.44596,-17.498363 -0.69998,-2.742057 -1.14576,-5.994674 -2.77743,-8.357427 m 5.22339,25.85579 -0.26117,0.261169 0.26117,-0.261169 M 99.897688,114.86524 v 2.08936 c 6.266512,1.51213 6.006882,7.55212 6.006902,12.79731 3e-5,11.66767 -0.26117,23.33846 -0.26117,34.99673 0,5.54037 0.16216,11.27053 -6.467295,12.53614 l -0.323115,1.82819 c 9.22354,0 19.11007,-0.26147 28.46749,-0.26147 l -0.26117,-1.56672 c -6.29648,-1.16176 -7.04922,-6.57865 -7.05148,-12.0138 l -1e-4,-35.2579 c 0,-5.23653 -0.65965,-11.91881 6.0069,-13.05848 v -2.08936 H 99.897688 m 28.989822,4.43989 0.26118,0.26116 -0.26118,-0.26116 m 4.96223,22.19941 0.26117,0.26117 -0.26117,-0.26117"
       id="path4"
       sodipodi:nodetypes="csssssscccscccsscccscsssscccscccsscscssccccscscccsccccccssccccccccccccccc" /></g></svg>
