<svg width="64" height="64" version="1.1" viewBox="0 0 64 64" xmlns="http://www.w3.org/2000/svg"><g transform="translate(0 -.6306)" fill="#fff" stroke-linecap="square" stroke-width="9.92"><path d="m16.34 32.51c-.3512 1e-6-.7035.1352-.9727.4043l-10.54 10.54c-.05184.03894-.1032.08168-.1504.1289l-.7285.7285c-.2409.2409-.3732.5477-.3984.8613-.00322.03998-.00614.08101-.00586.1211-2.33e-5.0033-7e-7.0065-7e-7.0098.0005339.03736.00228.0741.00586.1113.02525.3136.1575.6204.3984.8613l.7285.7285c.04723.04723.09855.08997.1504.1289l10.54 10.54c.5382.5382 1.405.5382 1.943 0l.7305-.7285c.5382-.5382.5382-1.405-1e-6-1.943l-7.82-7.82h43.55l-7.82 7.82c-.5382.5382-.5382 1.405 0 1.943l.7305.7285c.5382.5382 1.405.5382 1.943 0l10.54-10.54c.05184-.03894.1032-.08168.1504-.1289l.7285-.7285c.2409-.2409.3732-.5477.3984-.8613.0036-.03723.0073-.07397.0078-.1113 0-.0033 2.3e-5-.0065 0-.0098 2e-4-.04008-.0046-.08111-.0078-.1211-.02525-.3136-.1575-.6204-.3984-.8613l-.7285-.7285c-.04723-.04723-.09855-.08997-.1504-.1289l-10.54-10.54c-.2691-.2691-.6214-.4043-.9727-.4043-.3512 0-.7016.1352-.9707.4043l-.7305.7305c-.5382.5382-.5382 1.403-1e-6 1.941l7.818 7.818h-43.54l7.818-7.818c.5382-.5382.5382-1.403 0-1.941l-.7305-.7305c-.2691-.2691-.6195-.4043-.9707-.4043z"/><rect x="11.99" y="7.18" width="40.02" height="22.67" ry="1.374"/></g></svg>
