<?xml version="1.0" encoding="UTF-8" standalone="no"?>
<!-- Created with Inkscape (http://www.inkscape.org/) -->

<svg
   width="64"
   height="64"
   viewBox="0 0 64 64"
   version="1.1"
   id="svg1"
   sodipodi:docname="color.svg"
   inkscape:version="1.3 (0e150ed6c4, 2023-07-21)"
   xml:space="preserve"
   xmlns:inkscape="http://www.inkscape.org/namespaces/inkscape"
   xmlns:sodipodi="http://sodipodi.sourceforge.net/DTD/sodipodi-0.dtd"
   xmlns="http://www.w3.org/2000/svg"
   xmlns:svg="http://www.w3.org/2000/svg"><sodipodi:namedview
     id="namedview1"
     pagecolor="#505050"
     bordercolor="#ffffff"
     borderopacity="1"
     inkscape:showpageshadow="0"
     inkscape:pageopacity="0"
     inkscape:pagecheckerboard="1"
     inkscape:deskcolor="#d1d1d1"
     inkscape:document-units="mm"
     inkscape:zoom="8.2344211"
     inkscape:cx="41.654416"
     inkscape:cy="46.815677"
     inkscape:window-width="1920"
     inkscape:window-height="1021"
     inkscape:window-x="0"
     inkscape:window-y="290"
     inkscape:window-maximized="1"
     inkscape:current-layer="layer1" /><defs
     id="defs1" /><g
     inkscape:label="Layer 1"
     inkscape:groupmode="layer"
     id="layer1"><g
       id="g9"
       transform="translate(-0.21640685,-0.21596819)"><path
         id="path5"
         style="fill:#ffffff;fill-opacity:1;stroke:none;stroke-width:1px;stroke-linecap:butt;stroke-linejoin:miter;stroke-opacity:1"
         d="M 30.900391,4.65625 C 26.586886,4.7443519 22.465406,5.8684867 18.667969,7.7929688 7.4495524,13.478288 -1.1283168,33.464769 9.5527344,47.876953 18.415527,59.835721 33.59348,62.507151 39.148438,57.134766 44.703395,51.762381 37.120157,42.765567 44.080078,37.492188 51.039999,32.218809 55.255892,35.340159 58.65625,31.818359 61.108283,29.278755 60.235582,17.731229 48.212891,9.9589844 42.310756,6.1434627 36.446326,4.5429761 30.900391,4.65625 Z m -2.21875,38.623047 a 4.5512195,4.5512195 0 0 1 4.550781,4.550781 4.5512195,4.5512195 0 0 1 -4.550781,4.552734 4.5512195,4.5512195 0 0 1 -4.550782,-4.552734 4.5512195,4.5512195 0 0 1 4.550782,-4.550781 z" /><circle
         style="opacity:1;fill:#383838;fill-opacity:1;stroke:none;stroke-width:7.936;stroke-linecap:square;stroke-opacity:1"
         id="path7"
         cx="15.665946"
         cy="27.081442"
         r="5.3434234" /><circle
         style="opacity:1;fill:#717171;fill-opacity:1;stroke:none;stroke-width:7.936;stroke-linecap:square;stroke-opacity:1"
         id="circle7"
         cx="25.988468"
         cy="16.03027"
         r="5.3434234" /><circle
         style="opacity:1;fill:#959595;fill-opacity:1;stroke:none;stroke-width:7.936;stroke-linecap:square;stroke-opacity:1"
         id="circle8"
         cx="39.589909"
         cy="16.758919"
         r="5.3434234" /><circle
         style="opacity:1;fill:#d6d6d6;fill-opacity:1;stroke:none;stroke-width:7.936;stroke-linecap:square;stroke-opacity:1"
         id="circle9"
         cx="50.155315"
         cy="25.138378"
         r="5.3434234" /></g></g></svg>
