<?xml version="1.0" encoding="UTF-8" standalone="no"?>
<svg
   width="64"
   height="64"
   version="1.1"
   viewBox="0 0 64 64"
   id="svg3"
   sodipodi:docname="copy.svg"
   inkscape:version="1.3.2 (091e20ef0f, 2023-11-25, custom)"
   xmlns:inkscape="http://www.inkscape.org/namespaces/inkscape"
   xmlns:sodipodi="http://sodipodi.sourceforge.net/DTD/sodipodi-0.dtd"
   xmlns="http://www.w3.org/2000/svg"
   xmlns:svg="http://www.w3.org/2000/svg">
  <defs
     id="defs3" />
  <sodipodi:namedview
     id="namedview3"
     pagecolor="#505050"
     bordercolor="#ffffff"
     borderopacity="1"
     inkscape:showpageshadow="0"
     inkscape:pageopacity="0"
     inkscape:pagecheckerboard="1"
     inkscape:deskcolor="#d1d1d1"
     inkscape:zoom="0.69191504"
     inkscape:cx="-289.05283"
     inkscape:cy="-49.138981"
     inkscape:window-width="1920"
     inkscape:window-height="1022"
     inkscape:window-x="0"
     inkscape:window-y="0"
     inkscape:window-maximized="1"
     inkscape:current-layer="svg3" />
  <path
     id="rect1"
     style="color:#000000;fill:#ffffff;stroke-width:1.03323;stroke-linecap:round;stroke-linejoin:round;-inkscape-stroke:none;paint-order:stroke fill markers"
     d="M 27.275391 2.6074219 A 1.2916703 1.2916703 0 0 0 26.158203 3.2539062 L 23.115234 8.5214844 L 11.101562 8.5214844 C 9.2266884 8.5214844 7.6757812 10.072389 7.6757812 11.947266 L 7.6757812 57.96875 C 7.6757812 59.843626 9.2266884 61.392578 11.101562 61.392578 L 52.898438 61.392578 C 54.773313 61.392578 56.324219 59.843626 56.324219 57.96875 L 56.324219 50.451172 L 53.740234 50.451172 L 53.740234 57.96875 C 53.740234 58.457359 53.387045 58.808594 52.898438 58.808594 L 11.101562 58.808594 C 10.612956 58.808594 10.259766 58.457359 10.259766 57.96875 L 10.259766 11.947266 C 10.259766 11.458658 10.612956 11.105469 11.101562 11.105469 L 23.861328 11.105469 A 1.2916703 1.2916703 0 0 0 24.978516 10.458984 L 28.019531 5.1914062 L 34.994141 5.1914062 L 38.037109 10.458984 A 1.2916703 1.2916703 0 0 0 39.15625 11.105469 L 52.898438 11.105469 C 53.387045 11.105469 53.740234 11.458658 53.740234 11.947266 L 53.740234 40.519531 L 56.324219 40.519531 L 56.324219 11.947266 C 56.324219 10.072388 54.773313 8.5214843 52.898438 8.5214844 L 39.902344 8.5214844 L 36.859375 3.2539062 A 1.2916703 1.2916703 0 0 0 35.742188 2.6074219 L 27.275391 2.6074219 z M 15.898438 22.289062 A 1.2915411 1.2915411 0 0 0 14.607422 23.580078 A 1.2915411 1.2915411 0 0 0 15.898438 24.873047 L 48.101562 24.873047 A 1.2915411 1.2915411 0 0 0 49.392578 23.580078 A 1.2915411 1.2915411 0 0 0 48.101562 22.289062 L 15.898438 22.289062 z M 15.898438 29.416016 A 1.2915411 1.2915411 0 0 0 14.607422 30.708984 A 1.2915411 1.2915411 0 0 0 15.898438 32 L 48.101562 32 A 1.2915411 1.2915411 0 0 0 49.392578 30.708984 A 1.2915411 1.2915411 0 0 0 48.101562 29.416016 L 15.898438 29.416016 z M 15.898438 36.544922 A 1.2915411 1.2915411 0 0 0 14.607422 37.835938 A 1.2915411 1.2915411 0 0 0 15.898438 39.126953 L 45.503906 39.126953 L 49.085938 37.058594 A 1.2915411 1.2915411 0 0 0 48.101562 36.544922 L 15.898438 36.544922 z M 15.898438 43.671875 A 1.2915411 1.2915411 0 0 0 14.607422 44.962891 A 1.2915411 1.2915411 0 0 0 15.898438 46.255859 L 35.822266 46.255859 L 34.490234 45.486328 L 37.632812 43.671875 L 15.898438 43.671875 z M 15.898438 50.800781 A 1.2915411 1.2915411 0 0 0 14.607422 52.091797 A 1.2915411 1.2915411 0 0 0 15.898438 53.382812 L 48.101562 53.382812 A 1.2915411 1.2915411 0 0 0 48.146484 53.371094 L 43.695312 50.800781 L 15.898438 50.800781 z " />
  <path
     id="rect11"
     style="fill:#ffffff;fill-opacity:1;stroke:none;stroke-width:1.49227;stroke-linecap:round;stroke-linejoin:round;stroke-dasharray:none;stroke-opacity:1;paint-order:stroke fill markers"
     d="m 51.428725,38.287186 v 3.805266 h 6.823143 v 6.786292 h -6.823143 v 3.805265 L 38.961348,45.48618 Z"
     sodipodi:nodetypes="cccccccc" />
</svg>
