<svg width="64" height="64" version="1.1" viewBox="0 0 64 64" xmlns="http://www.w3.org/2000/svg"><g fill="#fff" stroke-linecap="square" stroke-width="9.92"><path d="m44.54 22.74c-1e-6-.3512-.1352-.7035-.4043-.9727l-10.54-10.54c-.03894-.05184-.08168-.1032-.1289-.1504l-.7285-.7285c-.2409-.2409-.5477-.3732-.8613-.3984-.03998-.00322-.08101-.00614-.1211-.00586-.0033-2.33e-5-.0065-7e-7-.0098-7e-7-.03736.0005339-.0741.00228-.1113.00586-.3136.02525-.6204.1575-.8613.3984l-.7285.7285c-.04723.04723-.08997.09855-.1289.1504l-10.54 10.54c-.5382.5382-.5382 1.405 0 1.943l.7285.7305c.5382.5382 1.405.5382 1.943-1e-6l7.82-7.82v30.75l-7.82-7.82c-.5382-.5382-1.405-.5382-1.943 0l-.7285.7305c-.5382.5382-.5382 1.405 0 1.943l10.54 10.54c.03894.05184.08168.1032.1289.1504l.7285.7285c.2409.2409.5477.3732.8613.3984.03723.0036.07397.0073.1113.0078.0033 0 .0065 2.3e-5.0098 0 .04008 2e-4.08111-.0046.1211-.0078.3136-.02525.6204-.1575.8613-.3984l.7285-.7285c.04723-.04723.08997-.09855.1289-.1504l10.54-10.54c.2691-.2691.4043-.6214.4043-.9727 0-.3512-.1352-.7016-.4043-.9707l-.7305-.7305c-.5382-.5382-1.403-.5382-1.941-1e-6l-7.818 7.818v-30.75l7.818 7.818c.5382.5382 1.403.5382 1.941 0l.7305-.7305c.2691-.2691.4043-.6195.4043-.9707z"/><g transform="rotate(90 32.23 31.77)"><rect x="3.78" y="13.1" width="3.78" height="37.8" ry="1.374"/><rect x="57.36" y="13.1" width="3.78" height="37.8" ry="1.374"/></g></g></svg>
